<svg width="24" height="24" viewBox="0 0 24 24" fill="none" xmlns="http://www.w3.org/2000/svg">
<rect width="24" height="24" fill="#1E1E1E"/>
<rect width="24" height="24" rx="3" fill="#0F172A"/>
<path d="M6.11364 21V3.54545H12.0114C13.3807 3.54545 14.5 3.79261 15.3693 4.28693C16.2443 4.77557 16.892 5.4375 17.3125 6.27273C17.733 7.10795 17.9432 8.03977 17.9432 9.06818C17.9432 10.0966 17.733 11.0312 17.3125 11.8722C16.8977 12.7131 16.2557 13.3835 15.3864 13.8835C14.517 14.3778 13.4034 14.625 12.0455 14.625H7.81818V12.75H11.9773C12.9148 12.75 13.6676 12.5881 14.2358 12.2642C14.804 11.9403 15.2159 11.5028 15.4716 10.9517C15.733 10.3949 15.8636 9.76705 15.8636 9.06818C15.8636 8.36932 15.733 7.74432 15.4716 7.19318C15.2159 6.64205 14.8011 6.21023 14.2273 5.89773C13.6534 5.57955 12.892 5.42045 11.9432 5.42045H8.22727V21H6.11364Z" fill="#809FFF"/>
</svg>
